<svg width="20" height="20" viewBox="0 0 20 20" fill="none" xmlns="http://www.w3.org/2000/svg">
<g filter="url(#filter0_d_2108_45)">
<ellipse cx="10.25" cy="9" rx="7.75" ry="8" fill="white"/>
</g>
<g clip-path="url(#clip0_2108_45)">
<path d="M10.5 11.5C11.8807 11.5 13 10.3807 13 9C13 7.61929 11.8807 6.5 10.5 6.5C9.11929 6.5 8 7.61929 8 9C8 10.3807 9.11929 11.5 10.5 11.5Z" stroke="#FFB04B" stroke-linecap="round" stroke-linejoin="round"/>
<path d="M10.5 3.5V4.5" stroke="#FFB04B" stroke-linecap="round" stroke-linejoin="round"/>
<path d="M10.5 13.5V14.5" stroke="#FFB04B" stroke-linecap="round" stroke-linejoin="round"/>
<path d="M6.61 5.10999L7.32 5.81999" stroke="#FFB04B" stroke-linecap="round" stroke-linejoin="round"/>
<path d="M13.6801 12.18L14.3901 12.89" stroke="#FFB04B" stroke-linecap="round" stroke-linejoin="round"/>
<path d="M5 9H6" stroke="#FFB04B" stroke-linecap="round" stroke-linejoin="round"/>
<path d="M15 9H16" stroke="#FFB04B" stroke-linecap="round" stroke-linejoin="round"/>
<path d="M6.61 12.89L7.32 12.18" stroke="#FFB04B" stroke-linecap="round" stroke-linejoin="round"/>
<path d="M13.6801 5.81999L14.3901 5.10999" stroke="#FFB04B" stroke-linecap="round" stroke-linejoin="round"/>
</g>
<defs>
<filter id="filter0_d_2108_45" x="0.5" y="0" width="19.5" height="20" filterUnits="userSpaceOnUse" color-interpolation-filters="sRGB">
<feFlood flood-opacity="0" result="BackgroundImageFix"/>
<feColorMatrix in="SourceAlpha" type="matrix" values="0 0 0 0 0 0 0 0 0 0 0 0 0 0 0 0 0 0 127 0" result="hardAlpha"/>
<feOffset dy="1"/>
<feGaussianBlur stdDeviation="1"/>
<feColorMatrix type="matrix" values="0 0 0 0 0 0 0 0 0 0 0 0 0 0 0 0 0 0 0.15 0"/>
<feBlend mode="normal" in2="BackgroundImageFix" result="effect1_dropShadow_2108_45"/>
<feBlend mode="normal" in="SourceGraphic" in2="effect1_dropShadow_2108_45" result="shape"/>
</filter>
<clipPath id="clip0_2108_45">
<rect width="12" height="12" fill="white" transform="translate(4.5 3)"/>
</clipPath>
</defs>
</svg>
